Coordinates
version=1
nRows=11
nColumns=63
inDegrees=yes

Units are S.I. units (second, meters, Newtons, ...)
If the header above contains a line with 'inDegrees', this indicates whether rotational values are in degrees (yes) or radians (no).

endheader
time	pelvis_tilt	pelvis_list	pelvis_rotation	pelvis_tx	pelvis_ty	pelvis_tz	hip_flexion_r	hip_adduction_r	hip_rotation_r	knee_angle_r	knee_angle_r_beta	ankle_angle_r	subtalar_angle_r	mtp_angle_r	hip_flexion_l	hip_adduction_l	hip_rotation_l	knee_angle_l	knee_angle_l_beta	ankle_angle_l	subtalar_angle_l	mtp_angle_l	L5_S1_Flex_Ext	L5_S1_Lat_Bending	L5_S1_axial_rotation	L4_L5_Flex_Ext	L4_L5_Lat_Bending	L4_L5_axial_rotation	L3_L4_Flex_Ext	L3_L4_Lat_Bending	L3_L4_axial_rotation	L2_L3_Flex_Ext	L2_L3_Lat_Bending	L2_L3_axial_rotation	L1_L2_Flex_Ext	L1_L2_Lat_Bending	L1_L2_axial_rotation	L1_T12_Flex_Ext	L1_T12_Lat_Bending	L1_T12_axial_rotation	Abs_r3	Abs_r2	Abs_r1	Abs_t1	Abs_t2	neck_flexion	neck_bending	neck_rotation	arm_flex_r	arm_add_r	arm_rot_r	elbow_flex_r	pro_sup_r	wrist_flex_r	wrist_dev_r	arm_flex_l	arm_add_l	arm_rot_l	elbow_flex_l	pro_sup_l	wrist_flex_l	wrist_dev_l
4.237288	-1.413461	-1.722959	68.570943	0.276649	0.391183	0.951799	-4.486270	1.475278	21.341918	1.343634	0.023451	13.804068	-16.679437	0.000000	-3.217846	-3.293554	-7.816391	4.424306	0.077219	28.919547	1.021609	0.000000	0.062768	0.408318	0.142404	0.116566	0.543063	0.151304	0.103121	0.992785	0.151304	0.071737	0.992785	0.124603	0.058286	0.832643	0.115703	0.035865	0.632485	0.106803	0.448344	4.618978	0.792006	0.000000	0.000000	27.978195	8.153412	5.033482	7.161716	-15.039533	15.485463	137.428821	86.619191	2.281906	-1.890181	21.410544	-21.253482	31.673444	135.403963	82.406058	-4.157003	3.708216
4.254237	-1.458555	-1.779218	68.301845	0.276771	0.391252	0.952312	-4.334879	1.430949	21.485786	1.418035	0.024749	13.658559	-16.745313	0.000000	-3.169972	-3.243778	-7.876822	4.483436	0.078251	28.804970	0.919872	0.000000	0.073556	0.396189	0.213581	0.136600	0.526931	0.226929	0.120845	0.963293	0.226929	0.084067	0.963293	0.186883	0.068304	0.807908	0.173534	0.042030	0.613696	0.160185	0.525400	4.481767	1.187871	0.000000	0.000000	27.983540	8.202740	4.639625	6.756606	-14.806537	14.535183	137.031594	86.905625	2.723652	-2.189427	21.787166	-21.190673	30.875610	134.711390	81.563814	-4.717214	3.185605
4.271186	-1.514687	-1.800335	68.027478	0.276938	0.391382	0.952710	-4.227282	1.360227	21.630928	1.483193	0.025887	13.505508	-16.827333	0.000000	-3.165011	-3.164514	-7.960201	4.512841	0.078764	28.741201	0.858727	0.000000	0.081198	0.381678	0.279504	0.150793	0.507632	0.296973	0.133401	0.928013	0.296973	0.092802	0.928013	0.244566	0.075401	0.778318	0.227097	0.046397	0.591220	0.209628	0.579991	4.317622	1.554518	0.000000	0.000000	27.976126	8.342633	4.291404	6.295166	-14.551712	13.560690	136.739381	87.205892	2.860614	-2.152945	22.050064	-21.084063	29.892441	133.960261	80.662010	-5.297032	2.505707
4.288136	-1.574863	-1.783789	67.764542	0.277120	0.391581	0.952978	-4.168054	1.270315	21.753448	1.538923	0.026859	13.367435	-16.890499	0.000000	-3.202314	-3.063797	-8.091478	4.520232	0.078893	28.737107	0.879908	0.000000	0.084705	0.365629	0.338709	0.157306	0.486287	0.359878	0.139162	0.888991	0.359878	0.096810	0.888991	0.296370	0.078657	0.745591	0.275201	0.048401	0.566359	0.254032	0.605041	4.136070	1.883799	0.000000	0.000000	27.958796	8.500083	3.939018	5.790817	-14.296937	12.585580	136.557952	87.520063	2.692862	-1.844512	22.191074	-20.914901	28.731042	133.176376	79.732073	-5.735212	1.690708
4.305085	-1.631429	-1.733511	67.517703	0.277347	0.391827	0.953115	-4.159249	1.172386	21.884888	1.577730	0.027537	13.257094	-16.955140	0.000000	-3.280357	-2.954521	-8.316741	4.511375	0.078738	28.789240	1.019582	0.000000	0.084411	0.348376	0.393518	0.156761	0.463340	0.418113	0.138680	0.847042	0.418113	0.096474	0.847042	0.344328	0.078384	0.710409	0.319733	0.048233	0.539635	0.295138	0.602943	3.940902	2.188628	0.000000	0.000000	27.934393	8.663586	3.583490	5.229430	-14.049225	11.639681	136.496150	87.806920	2.192310	-1.378759	22.198994	-20.674399	27.449253	132.421981	78.707290	-6.110410	0.828282
4.322034	-1.673545	-1.657308	67.294997	0.277576	0.392106	0.953109	-4.195080	1.078567	22.008681	1.603052	0.027979	13.188803	-16.994626	0.000000	-3.391422	-2.849727	-8.628627	4.496881	0.078485	28.881183	1.260333	0.000000	0.081004	0.332529	0.439602	0.150433	0.442263	0.467077	0.133082	0.808510	0.467077	0.092580	0.808510	0.384652	0.075220	0.678093	0.357176	0.046286	0.515087	0.329701	0.578604	3.761632	2.444933	0.000000	0.000000	27.902344	8.784956	3.260429	4.626994	-13.834972	10.767137	136.561338	88.055723	1.402820	-0.752131	22.052768	-20.357569	26.037413	131.735660	77.717770	-6.365693	-0.089690
4.338983	-1.699031	-1.563410	67.110006	0.277797	0.392397	0.952943	-4.271915	0.995076	22.127842	1.611664	0.028129	13.160196	-17.022602	0.000000	-3.532117	-2.754793	-9.010298	4.470076	0.078018	28.984210	1.573078	0.000000	0.076251	0.318725	0.476008	0.141606	0.423904	0.505759	0.125273	0.774947	0.505759	0.087147	0.774947	0.416507	0.070807	0.649943	0.386757	0.043570	0.493705	0.357006	0.544655	3.605477	2.647416	0.000000	0.000000	27.864631	8.850543	2.975318	3.964893	-13.668111	10.002729	136.752802	88.224700	0.319980	-0.085862	21.757152	-19.981083	24.549495	131.155888	76.791103	-6.547113	-1.078945
4.355932	-1.699664	-1.452931	66.981112	0.277983	0.392697	0.952635	-4.390915	0.932886	22.210292	1.605624	0.028023	13.175711	-17.025215	0.000000	-3.693553	-2.682794	-9.451964	4.448736	0.077645	29.094760	1.954743	0.000000	0.069714	0.308129	0.497243	0.129465	0.409812	0.528321	0.114532	0.749185	0.528321	0.079676	0.749185	0.435087	0.064736	0.628337	0.404010	0.039834	0.477292	0.372932	0.497957	3.485619	2.765516	0.000000	0.000000	27.823901	8.895664	2.790569	3.263488	-13.557802	9.376434	137.051168	88.267220	-0.967253	0.566623	21.318792	-19.567375	22.970615	130.696222	76.022815	-6.498199	-2.192254
4.372881	-1.678501	-1.328608	66.916093	0.278136	0.393001	0.952208	-4.547527	0.892441	22.249870	1.586515	0.027690	13.225401	-17.011072	0.000000	-3.871069	-2.632114	-9.866316	4.429514	0.077310	29.182027	2.304642	0.000000	0.061690	0.299964	0.503970	0.114565	0.398952	0.535468	0.101351	0.729332	0.535468	0.070506	0.729332	0.440974	0.057286	0.611686	0.409476	0.035250	0.464644	0.377977	0.440648	3.393249	2.802929	0.000000	0.000000	27.784960	8.951527	2.690380	2.522448	-13.498621	8.868648	137.432415	88.187465	-2.307493	1.117837	20.768458	-19.165375	21.360327	130.389234	75.316104	-6.113995	-3.367138
4.389831	-1.645232	-1.205719	66.908093	0.278280	0.393301	0.951666	-4.722665	0.870720	22.250321	1.554968	0.027139	13.297111	-16.985677	0.000000	-4.049059	-2.600084	-10.243430	4.407181	0.076920	29.234889	2.618693	0.000000	0.054916	0.293716	0.496918	0.101985	0.390642	0.527976	0.090222	0.714140	0.527976	0.062764	0.714140	0.434803	0.050995	0.598945	0.403746	0.031379	0.454966	0.372689	0.392260	3.322570	2.763710	0.000000	0.000000	27.749703	8.998325	2.644189	1.758687	-13.486295	8.488722	137.877784	88.025294	-3.611885	1.541756	20.097770	-18.821803	19.762241	130.262087	74.754267	-5.303956	-4.674233
4.406780	-1.603688	-1.085237	66.950618	0.278399	0.393598	0.951045	-4.909014	0.864467	22.192805	1.515284	0.026447	13.398877	-16.931910	0.000000	-4.224168	-2.580927	-10.502503	4.379374	0.076435	29.241090	2.802317	0.000000	0.048263	0.288611	0.479285	0.089628	0.383852	0.509240	0.079291	0.701728	0.509240	0.055159	0.701728	0.419374	0.044817	0.588535	0.389419	0.027577	0.447058	0.359464	0.344735	3.264824	2.665638	0.000000	0.000000	27.722069	9.038786	2.618786	1.010653	-13.510801	8.201731	138.357721	87.821992	-4.795119	1.811799	19.327194	-18.577359	18.253058	130.366523	74.240396	-4.009162	-5.968867
